<svg width="20" height="17" viewBox="0 0 20 17" fill="none" xmlns="http://www.w3.org/2000/svg">
<path d="M15 16.5C14.3 16.5 13.7083 16.2583 13.225 15.775C12.7417 15.2917 12.5 14.7 12.5 14C12.5 13.3 12.7417 12.7083 13.225 12.225C13.7083 11.7417 14.3 11.5 15 11.5C15.1333 11.5 15.2833 11.5125 15.45 11.5375C15.6167 11.5625 15.8 11.6167 16 11.7V6.5H19.5V8.5H17.5V14C17.5 14.7 17.2583 15.2917 16.775 15.775C16.2917 16.2583 15.7 16.5 15 16.5ZM8.5 8.5C7.4 8.5 6.45833 8.10833 5.675 7.325C4.89167 6.54167 4.5 5.6 4.5 4.5C4.5 3.4 4.89167 2.45833 5.675 1.675C6.45833 0.891667 7.4 0.5 8.5 0.5C9.6 0.5 10.5417 0.891667 11.325 1.675C12.1083 2.45833 12.5 3.4 12.5 4.5C12.5 5.6 12.1083 6.54167 11.325 7.325C10.5417 8.10833 9.6 8.5 8.5 8.5ZM0.5 16.5V13.7C0.5 13.1167 0.645833 12.5917 0.9375 12.125C1.22917 11.6583 1.61667 11.3 2.1 11.05C3.13333 10.5333 4.18333 10.1458 5.25 9.8875C6.31667 9.62917 7.4 9.5 8.5 9.5C9.2 9.5 9.89583 9.55417 10.5875 9.6625C11.2792 9.77083 11.975 9.93333 12.675 10.15C11.575 10.8167 10.8917 11.7708 10.625 13.0125C10.3583 14.2542 10.575 15.4167 11.275 16.5H0.5Z" fill="white"/>
</svg>
