<svg width="42" height="25" viewBox="0 0 42 25" fill="none" xmlns="http://www.w3.org/2000/svg">
<path d="M5.26371 12.5693L13.7624 21.2281C14.1645 21.6378 14.3655 22.1592 14.3655 22.7923C14.3655 23.4254 14.1645 23.9468 13.7624 24.3565C13.3603 24.7661 12.8486 24.971 12.2272 24.971C11.6057 24.971 11.094 24.7661 10.6919 24.3565L0.603133 14.0776C0.383812 13.8541 0.22846 13.6121 0.137076 13.3514C0.0456919 13.0907 0 12.8113 0 12.5134C0 12.2155 0.0456919 11.9362 0.137076 11.6755C0.22846 11.4148 0.383812 11.1727 0.603133 10.9492L10.6919 0.670361C11.1305 0.223454 11.6514 0 12.2546 0C12.8577 0 13.3786 0.223454 13.8172 0.670361C14.2559 1.11727 14.4752 1.64797 14.4752 2.26247C14.4752 2.87697 14.2559 3.40767 13.8172 3.85458L5.26371 12.5693ZM36.7363 12.4575L28.2376 3.79871C27.8355 3.38905 27.6345 2.86766 27.6345 2.23454C27.6345 1.60142 27.8355 1.08003 28.2376 0.670361C28.6397 0.260696 29.1514 0.0558634 29.7728 0.0558634C30.3943 0.0558634 30.906 0.260696 31.3081 0.670361L41.3969 10.9492C41.6162 11.1727 41.7715 11.4148 41.8629 11.6755C41.9543 11.9362 42 12.2155 42 12.5134C42 12.8113 41.9543 13.0907 41.8629 13.3514C41.7715 13.6121 41.6162 13.8541 41.3969 14.0776L31.3081 24.3565C30.8695 24.8034 30.3577 25.0175 29.7728 24.9989C29.188 24.9803 28.6762 24.7475 28.2376 24.3006C27.799 23.8537 27.5796 23.323 27.5796 22.7085C27.5796 22.094 27.799 21.5633 28.2376 21.1164L36.7363 12.4575Z" fill="white"/>
</svg>
