<svg width="27" height="27" viewBox="0 0 27 27" fill="none" xmlns="http://www.w3.org/2000/svg">
<path d="M12.0312 18.5938C12.0312 19.146 12.479 19.5938 13.0312 19.5938H13.0938C13.646 19.5938 14.0938 19.146 14.0938 18.5938V12.6875C14.0938 12.1352 13.646 11.6875 13.0938 11.6875H13.0312C12.479 11.6875 12.0312 12.1352 12.0312 12.6875V18.5938ZM13.0625 9.33419C13.3771 9.33419 13.6409 9.22774 13.8538 9.01484C14.0667 8.80195 14.1732 8.53818 14.1732 8.22353C14.1732 7.90889 14.0667 7.64512 13.8538 7.43222C13.6409 7.21955 13.3771 7.11322 13.0625 7.11322C12.7479 7.11322 12.4841 7.21955 12.2712 7.43222C12.0583 7.64512 11.9518 7.90889 11.9518 8.22353C11.9518 8.53818 12.0583 8.80195 12.2712 9.01484C12.4841 9.22774 12.7479 9.33419 13.0625 9.33419ZM13.0649 26.125C11.2582 26.125 9.55992 25.7822 7.97019 25.0965C6.38046 24.4108 4.99767 23.4803 3.82181 22.3049C2.64596 21.1295 1.71497 19.7473 1.02884 18.1583C0.342948 16.5692 0 14.8714 0 13.0649C0 11.2582 0.342833 9.55992 1.0285 7.97019C1.71417 6.38046 2.6447 4.99767 3.82009 3.82181C4.99549 2.64596 6.37771 1.71497 7.96675 1.02884C9.55579 0.342948 11.2536 0 13.0601 0C14.8668 0 16.5651 0.342833 18.1548 1.0285C19.7445 1.71417 21.1273 2.6447 22.3032 3.82009C23.479 4.99549 24.41 6.37771 25.0962 7.96675C25.7821 9.55579 26.125 11.2536 26.125 13.0601C26.125 14.8668 25.7822 16.5651 25.0965 18.1548C24.4108 19.7445 23.4803 21.1273 22.3049 22.3032C21.1295 23.479 19.7473 24.41 18.1583 25.0962C16.5692 25.7821 14.8714 26.125 13.0649 26.125ZM13.0625 24.0625C16.1333 24.0625 18.7344 22.9969 20.8656 20.8656C22.9969 18.7344 24.0625 16.1333 24.0625 13.0625C24.0625 9.99167 22.9969 7.39062 20.8656 5.25938C18.7344 3.12812 16.1333 2.0625 13.0625 2.0625C9.99167 2.0625 7.39062 3.12812 5.25938 5.25938C3.12812 7.39062 2.0625 9.99167 2.0625 13.0625C2.0625 16.1333 3.12812 18.7344 5.25938 20.8656C7.39062 22.9969 9.99167 24.0625 13.0625 24.0625Z" fill="white"/>
</svg>
