<svg width="16" height="16" viewBox="0 0 16 16" fill="none" xmlns="http://www.w3.org/2000/svg">
<path d="M1.81818 16C1.31818 16 0.890152 15.8259 0.534091 15.4778C0.17803 15.1296 0 14.7111 0 14.2222V1.77778C0 1.28889 0.17803 0.87037 0.534091 0.522222C0.890152 0.174074 1.31818 0 1.81818 0H7.27273C7.5303 0 7.74621 0.0851852 7.92045 0.255556C8.0947 0.425926 8.18182 0.637037 8.18182 0.888889C8.18182 1.14074 8.0947 1.35185 7.92045 1.52222C7.74621 1.69259 7.5303 1.77778 7.27273 1.77778H1.81818V14.2222H7.27273C7.5303 14.2222 7.74621 14.3074 7.92045 14.4778C8.0947 14.6481 8.18182 14.8593 8.18182 15.1111C8.18182 15.363 8.0947 15.5741 7.92045 15.7444C7.74621 15.9148 7.5303 16 7.27273 16H1.81818ZM12.8864 8.88889H6.36364C6.10606 8.88889 5.89015 8.8037 5.71591 8.63333C5.54167 8.46296 5.45455 8.25185 5.45455 8C5.45455 7.74815 5.54167 7.53704 5.71591 7.36667C5.89015 7.1963 6.10606 7.11111 6.36364 7.11111H12.8864L11.1818 5.44444C11.0152 5.28148 10.9318 5.08148 10.9318 4.84444C10.9318 4.60741 11.0152 4.4 11.1818 4.22222C11.3485 4.04444 11.5606 3.95185 11.8182 3.94444C12.0758 3.93704 12.2955 4.02222 12.4773 4.2L15.7273 7.37778C15.9091 7.55556 16 7.76296 16 8C16 8.23704 15.9091 8.44444 15.7273 8.62222L12.4773 11.8C12.2955 11.9778 12.0795 12.063 11.8295 12.0556C11.5795 12.0481 11.3636 11.9556 11.1818 11.7778C11.0152 11.6 10.9356 11.3889 10.9432 11.1444C10.9508 10.9 11.0379 10.6963 11.2045 10.5333L12.8864 8.88889Z" fill="#E8EAED"/>
</svg>
