<svg width="36" height="36" viewBox="0 0 36 36" fill="none" xmlns="http://www.w3.org/2000/svg">
<path d="M4.09091 36C2.96591 36 2.00284 35.6083 1.2017 34.825C0.400568 34.0417 0 33.1 0 32V4C0 2.9 0.400568 1.95833 1.2017 1.175C2.00284 0.391667 2.96591 0 4.09091 0H16.3636C16.9432 0 17.429 0.191667 17.821 0.575C18.2131 0.958333 18.4091 1.43333 18.4091 2C18.4091 2.56667 18.2131 3.04167 17.821 3.425C17.429 3.80833 16.9432 4 16.3636 4H4.09091V32H16.3636C16.9432 32 17.429 32.1917 17.821 32.575C18.2131 32.9583 18.4091 33.4333 18.4091 34C18.4091 34.5667 18.2131 35.0417 17.821 35.425C17.429 35.8083 16.9432 36 16.3636 36H4.09091ZM28.9943 20H14.3182C13.7386 20 13.2528 19.8083 12.8608 19.425C12.4688 19.0417 12.2727 18.5667 12.2727 18C12.2727 17.4333 12.4688 16.9583 12.8608 16.575C13.2528 16.1917 13.7386 16 14.3182 16H28.9943L25.1591 12.25C24.7841 11.8833 24.5966 11.4333 24.5966 10.9C24.5966 10.3667 24.7841 9.9 25.1591 9.5C25.5341 9.1 26.0114 8.89167 26.5909 8.875C27.1705 8.85833 27.6648 9.05 28.0739 9.45L35.3864 16.6C35.7955 17 36 17.4667 36 18C36 18.5333 35.7955 19 35.3864 19.4L28.0739 26.55C27.6648 26.95 27.179 27.1417 26.6165 27.125C26.054 27.1083 25.5682 26.9 25.1591 26.5C24.7841 26.1 24.6051 25.625 24.6222 25.075C24.6392 24.525 24.8352 24.0667 25.2102 23.7L28.9943 20Z" fill="black"/>
</svg>
