<svg width="300" height="300" viewBox="0 0 300 300" fill="none" xmlns="http://www.w3.org/2000/svg">
<circle cx="150" cy="150" r="150" fill="#121212"/>
<path d="M54.3409 128.091L62.7784 154.614H63.1023L71.5568 128.091H79.7386L67.7045 163H58.1932L46.142 128.091H54.3409ZM83.804 163V136.818H91.0653V163H83.804ZM87.4517 133.443C86.3722 133.443 85.446 133.085 84.6733 132.369C83.9119 131.642 83.5312 130.773 83.5312 129.761C83.5312 128.761 83.9119 127.903 84.6733 127.188C85.446 126.46 86.3722 126.097 87.4517 126.097C88.5313 126.097 89.4517 126.46 90.2131 127.188C90.9858 127.903 91.3722 128.761 91.3722 129.761C91.3722 130.773 90.9858 131.642 90.2131 132.369C89.4517 133.085 88.5313 133.443 87.4517 133.443ZM118.666 144.284L112.018 144.693C111.905 144.125 111.661 143.614 111.286 143.159C110.911 142.693 110.416 142.324 109.803 142.051C109.2 141.767 108.479 141.625 107.638 141.625C106.513 141.625 105.564 141.864 104.791 142.341C104.018 142.807 103.632 143.432 103.632 144.216C103.632 144.841 103.882 145.369 104.382 145.801C104.882 146.233 105.74 146.58 106.956 146.841L111.695 147.795C114.24 148.318 116.138 149.159 117.388 150.318C118.638 151.477 119.263 153 119.263 154.886C119.263 156.602 118.757 158.108 117.746 159.403C116.746 160.699 115.371 161.71 113.621 162.438C111.882 163.153 109.876 163.511 107.604 163.511C104.138 163.511 101.376 162.79 99.3196 161.347C97.2741 159.892 96.0753 157.915 95.723 155.415L102.865 155.04C103.081 156.097 103.604 156.903 104.433 157.46C105.263 158.006 106.325 158.278 107.621 158.278C108.893 158.278 109.916 158.034 110.689 157.545C111.473 157.045 111.871 156.403 111.882 155.619C111.871 154.96 111.592 154.42 111.047 154C110.501 153.568 109.661 153.239 108.524 153.011L103.99 152.108C101.433 151.597 99.5298 150.71 98.2798 149.449C97.0412 148.187 96.4219 146.58 96.4219 144.625C96.4219 142.943 96.8764 141.494 97.7855 140.278C98.706 139.062 99.9957 138.125 101.655 137.466C103.325 136.807 105.28 136.477 107.518 136.477C110.825 136.477 113.428 137.176 115.325 138.574C117.234 139.972 118.348 141.875 118.666 144.284ZM164.629 163.494C162.959 163.494 161.47 163.205 160.163 162.625C158.857 162.034 157.822 161.165 157.061 160.017C156.311 158.858 155.936 157.415 155.936 155.688C155.936 154.233 156.203 153.011 156.737 152.023C157.271 151.034 157.999 150.239 158.919 149.636C159.839 149.034 160.885 148.58 162.055 148.273C163.237 147.966 164.476 147.75 165.771 147.625C167.294 147.466 168.521 147.318 169.453 147.182C170.385 147.034 171.061 146.818 171.482 146.534C171.902 146.25 172.112 145.83 172.112 145.273V145.17C172.112 144.091 171.771 143.256 171.089 142.665C170.419 142.074 169.464 141.778 168.226 141.778C166.919 141.778 165.879 142.068 165.107 142.648C164.334 143.216 163.822 143.932 163.572 144.795L156.857 144.25C157.197 142.659 157.868 141.284 158.868 140.125C159.868 138.955 161.158 138.057 162.737 137.432C164.328 136.795 166.169 136.477 168.26 136.477C169.714 136.477 171.107 136.648 172.436 136.989C173.777 137.33 174.964 137.858 175.999 138.574C177.044 139.29 177.868 140.21 178.47 141.335C179.072 142.449 179.374 143.784 179.374 145.341V163H172.487V159.369H172.283C171.862 160.188 171.3 160.909 170.595 161.534C169.891 162.148 169.044 162.631 168.055 162.983C167.067 163.324 165.925 163.494 164.629 163.494ZM166.709 158.483C167.777 158.483 168.72 158.273 169.538 157.852C170.357 157.42 170.999 156.841 171.464 156.114C171.93 155.386 172.163 154.562 172.163 153.642V150.864C171.936 151.011 171.624 151.148 171.226 151.273C170.839 151.386 170.402 151.494 169.913 151.597C169.425 151.687 168.936 151.773 168.447 151.852C167.959 151.92 167.516 151.983 167.118 152.04C166.266 152.165 165.521 152.364 164.885 152.636C164.249 152.909 163.754 153.278 163.402 153.744C163.05 154.199 162.874 154.767 162.874 155.449C162.874 156.438 163.232 157.193 163.947 157.716C164.675 158.227 165.595 158.483 166.709 158.483ZM192.268 128.091V163H185.007V128.091H192.268ZM198.085 163V136.818H205.347V163H198.085ZM201.733 133.443C200.653 133.443 199.727 133.085 198.955 132.369C198.193 131.642 197.812 130.773 197.812 129.761C197.812 128.761 198.193 127.903 198.955 127.187C199.727 126.46 200.653 126.097 201.733 126.097C202.813 126.097 203.733 126.46 204.494 127.187C205.267 127.903 205.653 128.761 205.653 129.761C205.653 130.773 205.267 131.642 204.494 132.369C203.733 133.085 202.813 133.443 201.733 133.443ZM225.243 136.818V142.273H209.084V136.818H225.243ZM212.783 163V134.926C212.783 133.028 213.152 131.455 213.891 130.205C214.641 128.955 215.663 128.017 216.959 127.392C218.254 126.767 219.726 126.455 221.374 126.455C222.487 126.455 223.504 126.54 224.425 126.71C225.357 126.881 226.05 127.034 226.504 127.17L225.209 132.625C224.925 132.534 224.572 132.449 224.152 132.369C223.743 132.29 223.322 132.25 222.891 132.25C221.822 132.25 221.078 132.5 220.658 133C220.237 133.489 220.027 134.176 220.027 135.062V163H212.783ZM234.162 172.818C233.241 172.818 232.378 172.744 231.571 172.597C230.776 172.46 230.116 172.284 229.594 172.068L231.23 166.648C232.082 166.909 232.849 167.051 233.531 167.074C234.224 167.097 234.821 166.938 235.321 166.597C235.832 166.256 236.247 165.676 236.565 164.858L236.991 163.75L227.599 136.818H235.236L240.656 156.045H240.929L246.401 136.818H254.088L243.912 165.83C243.423 167.239 242.759 168.466 241.918 169.511C241.088 170.568 240.037 171.381 238.764 171.949C237.491 172.528 235.957 172.818 234.162 172.818Z" fill="#1ED760"/>
<rect x="125" y="138" width="7.33333" height="25" fill="#BB87FE"/>
<rect x="134.333" y="155" width="7.33333" height="8" fill="#BB87FE"/>
<rect x="143.667" y="145" width="7.33333" height="18" fill="#BB87FE"/>
</svg>
